<?xml version="1.0" encoding="UTF-8"?>
<svg id="Layer_2" data-name="Layer 2" xmlns="http://www.w3.org/2000/svg" viewBox="0 0 160 160">
  <defs>
    <style>
      .cls-1 {
        fill: #90f3fa;
      }

      .cls-2 {
        fill: #40e9fa;
      }

      .cls-3 {
        fill: #2bd1c8;
      }

      .cls-4 {
        fill: #e3f6fa;
      }

      .cls-5 {
        fill: #131c2e;
      }

      .cls-6 {
        fill: #0fa3ae;
      }

      .cls-7 {
        fill: #e5f6fa;
      }
    </style>
  </defs>
  <g id="Layer_1-2" data-name="Layer 1">
    <rect class="cls-5" width="160" height="160" rx="26.38" ry="26.38"/>
    <path class="cls-1" d="M118.98,50.36c0,5.5-18.04,9.96-40.28,9.96s-40.28-4.46-40.28-9.96,18.03-9.97,40.28-9.97,40.28,4.46,40.28,9.97Z"/>
    <path class="cls-2" d="M118.88,50.36c-1.4,5.29-18.86,9.48-40.18,9.48s-38.78-4.18-40.18-9.48h-.1v23.04c0,5.62,18.03,10.17,40.28,10.17s40.28-4.55,40.28-10.17v-23.04h-.1Z"/>
    <path class="cls-3" d="M118.98,73.83v22.23c0,.75-.44,1.46-1.19,1.96-1.53,1.02-3.74,1.96-6.49,2.79-7.59,2.3-19.32,3.78-32.49,3.78s-25.13-1.51-32.71-3.84c-2.79-.87-5-1.84-6.51-2.89-.74-.52-1.17-1.24-1.17-2v-22.21h.02c1.38,1.43,4.04,2.74,7.66,3.86,7.58,2.33,19.41,3.84,32.71,3.84s24.9-1.48,32.49-3.78c3.58-1.08,6.23-2.35,7.68-3.74Z"/>
    <path class="cls-6" d="M118.98,96.12v22.23c0,.75-.44,1.46-1.19,1.96-1.53,1.02-3.74,1.96-6.49,2.79-7.59,2.3-19.32,3.78-32.49,3.78s-25.13-1.51-32.71-3.84c-2.79-.87-5-1.84-6.51-2.89-.74-.52-1.17-1.24-1.17-2v-22.21h.02c1.38,1.43,4.04,2.74,7.66,3.86,7.58,2.33,19.41,3.84,32.71,3.84s24.9-1.48,32.49-3.78c3.58-1.08,6.23-2.35,7.68-3.74Z"/>
    <path class="cls-7" d="M41.62,77.62c-1.22.2-2.44-.37-3.06-1.44l-6.68-11.48c-.27-.47-.73-.8-1.26-.91l-13-2.73c-1.62-.34-2.65-1.92-2.31-3.54.17-.83.69-1.55,1.42-1.97l11.48-6.68c.47-.27.8-.73.91-1.26l2.73-13c.34-1.62,1.92-2.65,3.54-2.31.83.17,1.55.69,1.97,1.42l6.68,11.48c.27.47.73.8,1.26.91l12.92,2.72c1.26.25,2.23,1.26,2.42,2.53.18,1.2-.4,2.39-1.45,3l-11.48,6.68c-.47.27-.8.73-.91,1.26l-2.73,13c-.25,1.21-1.23,2.14-2.45,2.33Z"/>
    <path class="cls-4" d="M114.24,111.86c-.86-.14-1.54-.8-1.71-1.65l-1.86-9.14c-.08-.37-.31-.7-.63-.89l-8.03-4.75c-1-.59-1.33-1.88-.74-2.88.3-.51.81-.87,1.39-.99l9.14-1.86c.37-.08.7-.31.89-.63l4.75-8.03c.59-1,1.88-1.33,2.88-.74.51.3.87.81.99,1.39l1.86,9.14c.08.37.31.7.63.89l7.98,4.72c.78.45,1.2,1.34,1.04,2.23-.15.84-.81,1.5-1.65,1.67l-9.14,1.86c-.37.08-.7.31-.89.63l-4.75,8.03c-.44.75-1.3,1.15-2.16,1Z"/>
  </g>
</svg>